<?xml version="1.0" encoding="UTF-8" standalone="no"?>
<!DOCTYPE svg PUBLIC "-//W3C//DTD SVG 1.1//EN" "http://www.w3.org/Graphics/SVG/1.1/DTD/svg11.dtd">
<svg width="100%" height="100%" viewBox="0 0 121 123" version="1.1" xmlns="http://www.w3.org/2000/svg" xmlns:xlink="http://www.w3.org/1999/xlink" xml:space="preserve" xmlns:serif="http://www.serif.com/" style="fill-rule:evenodd;clip-rule:evenodd;stroke-linejoin:round;stroke-miterlimit:2;">
    <g transform="matrix(1,0,0,1,-0.00440256,0.000356654)">
        <g transform="matrix(1,0,0,1,-81.25,-80.51)">
            <path d="M169.81,80.51C169.759,80.51 169.709,80.51 169.658,80.51C151.967,80.51 137.408,95.068 137.408,112.76C137.408,115.503 137.758,118.235 138.45,120.89L82.52,176.81C81.71,177.62 81.254,178.72 81.254,179.865C81.254,181.01 81.71,182.11 82.52,182.92L88.1,188.51L82.52,194.09C81.71,194.9 81.254,196 81.254,197.145C81.254,198.29 81.71,199.39 82.52,200.2L82.98,200.63L85.56,203L91.68,197.19L94.21,194.66L99.8,200.24C100.609,201.052 101.709,201.51 102.855,201.51C104.001,201.51 105.101,201.052 105.91,200.24L161.83,144.32C164.452,144.991 167.149,145.33 169.855,145.33C187.624,145.33 202.245,130.709 202.245,112.94C202.245,95.171 187.624,80.55 169.855,80.55C169.847,80.55 169.838,80.55 169.83,80.55L169.81,80.51ZM102.85,191L91.68,179.87L124.45,147.1L135.62,158.27L102.85,191ZM141.73,152.12L130.56,141L142,129.51C144.752,134.092 148.588,137.928 153.17,140.68L141.73,152.12ZM169.81,136.63C156.776,136.63 146.05,125.904 146.05,112.87C146.05,99.836 156.776,89.11 169.81,89.11C182.844,89.11 193.57,99.836 193.57,112.87C193.575,125.913 182.853,136.654 169.81,136.67L169.81,136.63Z" style="fill:white;fill-rule:nonzero;"/>
        </g>
    </g>
</svg>
