<?xml version="1.0" encoding="UTF-8" standalone="no"?>
<!DOCTYPE svg PUBLIC "-//W3C//DTD SVG 1.1//EN" "http://www.w3.org/Graphics/SVG/1.1/DTD/svg11.dtd">
<svg width="100%" height="100%" viewBox="0 0 96 139" version="1.1" xmlns="http://www.w3.org/2000/svg" xmlns:xlink="http://www.w3.org/1999/xlink" xml:space="preserve" xmlns:serif="http://www.serif.com/" style="fill-rule:evenodd;clip-rule:evenodd;stroke-linejoin:round;stroke-miterlimit:2;">
    <g transform="matrix(1,0,0,1,0.000104006,0)">
        <g transform="matrix(1,0,0,1,-94.21,-72.61)">
            <path d="M94.21,128.77L94.21,189.25C94.21,196.72 98.73,210.85 115.81,210.85L150.37,210.85C167.46,210.85 171.97,196.72 171.97,189.25L171.97,184.93L184.97,184.93C184.973,184.93 184.977,184.93 184.98,184.93C187.344,184.93 189.29,182.984 189.29,180.62C189.29,180.617 189.29,180.613 189.29,180.61L189.29,146.05C189.29,143.68 187.34,141.73 184.97,141.73L172,141.73L172,128.73C172,126.36 170.05,124.41 167.68,124.41L98.53,124.41C96.158,124.415 94.21,126.368 94.21,128.74C94.21,128.75 94.21,128.76 94.21,128.77ZM180.61,150.37L180.61,176.29L172,176.29L172,150.37L180.61,150.37ZM102.85,133.09L163.33,133.09L163.33,189.23C163.33,191.4 162.57,202.23 150.33,202.23L115.81,202.23C103.62,202.23 102.88,191.42 102.81,189.23L102.85,133.09Z" style="fill:white;fill-rule:nonzero;"/>
        </g>
        <g transform="matrix(1,0,0,1,-94.21,-72.61)">
            <path d="M109.33,98.53C106.962,98.535 105.015,100.482 105.01,102.85L105.01,111.49C105.01,113.86 106.96,115.81 109.33,115.81C111.7,115.81 113.65,113.86 113.65,111.49L113.65,107.17L130.93,107.17C130.933,107.17 130.937,107.17 130.94,107.17C133.304,107.17 135.25,105.224 135.25,102.86C135.25,102.857 135.25,102.853 135.25,102.85L135.25,89.85C135.25,87.48 133.3,85.53 130.93,85.53L120.13,85.53L120.13,76.93C120.13,74.56 118.18,72.61 115.81,72.61C113.44,72.61 111.49,74.56 111.49,76.93L111.49,89.93C111.49,92.3 113.44,94.25 115.81,94.25L126.61,94.25L126.61,98.57L109.33,98.53Z" style="fill:white;fill-rule:nonzero;"/>
        </g>
        <g transform="matrix(1,0,0,1,-94.21,-72.61)">
            <path d="M143.89,98.53C141.522,98.535 139.575,100.482 139.57,102.85L139.57,111.49C139.57,113.86 141.52,115.81 143.89,115.81C146.26,115.81 148.21,113.86 148.21,111.49L148.21,107.17L165.49,107.17C165.493,107.17 165.497,107.17 165.5,107.17C167.864,107.17 169.81,105.224 169.81,102.86C169.81,102.857 169.81,102.853 169.81,102.85L169.81,85.57C169.81,83.2 167.86,81.25 165.49,81.25L154.69,81.25L154.69,76.93C154.69,74.56 152.74,72.61 150.37,72.61C148,72.61 146.05,74.56 146.05,76.93L146.05,85.57C146.05,87.94 148,89.89 150.37,89.89L161.17,89.89L161.17,98.53L143.89,98.53Z" style="fill:white;fill-rule:nonzero;"/>
        </g>
    </g>
</svg>
