<?xml version="1.0" encoding="UTF-8" standalone="no"?>
<!DOCTYPE svg PUBLIC "-//W3C//DTD SVG 1.1//EN" "http://www.w3.org/Graphics/SVG/1.1/DTD/svg11.dtd">
<svg width="100%" height="100%" viewBox="0 0 139 100" version="1.1" xmlns="http://www.w3.org/2000/svg" xmlns:xlink="http://www.w3.org/1999/xlink" xml:space="preserve" xmlns:serif="http://www.serif.com/" style="fill-rule:evenodd;clip-rule:evenodd;stroke-linejoin:round;stroke-miterlimit:2;">
    <g transform="matrix(1,0,0,1,0,1.16279e-05)">
        <g transform="matrix(1,0,0,1,-78.06,-99.18)">
            <path d="M82.38,198.54L212,198.54C212.003,198.54 212.007,198.54 212.01,198.54C214.374,198.54 216.32,196.594 216.32,194.23C216.32,194.227 216.32,194.223 216.32,194.22L216.32,103.5C216.32,103.497 216.32,103.493 216.32,103.49C216.32,101.126 214.374,99.18 212.01,99.18C212.007,99.18 212.003,99.18 212,99.18L82.38,99.18C80.01,99.18 78.06,101.13 78.06,103.5L78.06,194.22C78.06,196.59 80.01,198.54 82.38,198.54ZM86.7,189.9L86.7,183.17L129.76,144L152.76,167C153.569,167.813 154.67,168.271 155.817,168.271C157.175,168.271 158.457,167.629 159.27,166.54L169.4,153.04L207.65,187.47L207.65,189.87L86.7,189.9ZM207.7,107.82L207.7,175.88L171.7,143.49C170.804,142.677 169.604,142.28 168.4,142.4C167.207,142.53 166.12,143.15 165.4,144.11L155.4,157.4L133,135C131.374,133.355 128.701,133.293 127,134.86L86.7,171.5L86.7,107.82L207.7,107.82Z" style="fill:rgb(253,131,131);fill-rule:nonzero;"/>
        </g>
        <g transform="matrix(1,0,0,1,-78.06,-99.18)">
            <path d="M188.22,142.38C196.515,142.38 203.34,135.555 203.34,127.26C203.34,118.965 196.515,112.14 188.22,112.14C179.925,112.14 173.1,118.965 173.1,127.26C173.105,135.553 179.927,142.375 188.22,142.38ZM188.22,120.78C191.775,120.78 194.7,123.705 194.7,127.26C194.7,130.815 191.775,133.74 188.22,133.74C184.665,133.74 181.74,130.815 181.74,127.26C181.74,123.705 184.665,120.78 188.22,120.78Z" style="fill:rgb(253,131,131);fill-rule:nonzero;"/>
        </g>
    </g>
</svg>
