<?xml version="1.0" encoding="UTF-8" standalone="no"?>
<!DOCTYPE svg PUBLIC "-//W3C//DTD SVG 1.1//EN" "http://www.w3.org/Graphics/SVG/1.1/DTD/svg11.dtd">
<svg width="100%" height="100%" viewBox="0 0 125 123" version="1.1" xmlns="http://www.w3.org/2000/svg" xmlns:xlink="http://www.w3.org/1999/xlink" xml:space="preserve" xmlns:serif="http://www.serif.com/" style="fill-rule:evenodd;clip-rule:evenodd;stroke-linejoin:round;stroke-miterlimit:2;">
    <g transform="matrix(1,0,0,1,0.000303046,-0.0075399)">
        <g transform="matrix(1,0,0,1,-79.33,-80.6)">
            <path d="M80.56,201.64C81.347,202.427 82.416,202.87 83.53,202.87C84.644,202.87 85.713,202.427 86.5,201.64L108.14,180C127.47,197.78 155.08,197.88 173.24,179.88C196.47,156.88 203.81,88.14 204.11,85.23C204.243,83.973 203.798,82.72 202.9,81.83C202.001,80.941 200.748,80.5 199.49,80.63C196.58,80.94 128.07,88.48 104.97,111.58C87.74,128.81 86.97,154.67 102.41,173.86L80.56,195.7C79.773,196.487 79.33,197.556 79.33,198.67C79.33,199.784 79.773,200.853 80.56,201.64ZM114,174L135.54,152.46C136.255,151.685 136.652,150.668 136.652,149.613C136.652,147.309 134.756,145.413 132.452,145.413C131.395,145.413 130.376,145.812 129.6,146.53L108.31,167.81C96.31,152.07 97.04,131.33 110.87,117.5C128.43,99.94 178.65,91.85 195.08,89.62C192.9,106.08 184.94,156.43 167.31,173.9C152.54,188.58 130,188.48 114,174Z" style="fill:rgb(253,131,131);fill-rule:nonzero;"/>
        </g>
    </g>
</svg>
