<?xml version="1.0" encoding="UTF-8" standalone="no"?>
<!DOCTYPE svg PUBLIC "-//W3C//DTD SVG 1.1//EN" "http://www.w3.org/Graphics/SVG/1.1/DTD/svg11.dtd">
<svg width="100%" height="100%" viewBox="0 0 115 108" version="1.1" xmlns="http://www.w3.org/2000/svg" xmlns:xlink="http://www.w3.org/1999/xlink" xml:space="preserve" xmlns:serif="http://www.serif.com/" style="fill-rule:evenodd;clip-rule:evenodd;stroke-linejoin:round;stroke-miterlimit:2;">
    <g transform="matrix(1,0,0,1,0.0603589,0.00577773)">
        <g transform="matrix(1,0,0,1,-98.52,-87.8)">
            <path d="M107.36,186.82C113.029,192.515 120.742,195.72 128.778,195.72C145.356,195.72 158.998,182.079 158.998,165.5C158.998,158.955 156.871,152.583 152.94,147.35L183.73,116.56L186.78,119.62C187.59,120.43 188.69,120.885 189.835,120.885C192.205,120.885 194.155,118.935 194.155,116.565C194.155,115.42 193.7,114.32 192.89,113.51L189.89,110.45L196,104.34L205.16,113.51C205.97,114.32 207.07,114.775 208.215,114.775C210.585,114.775 212.535,112.825 212.535,110.455C212.535,109.31 212.08,108.21 211.27,107.4L202.11,98.23L205.16,95.23C205.977,94.413 206.436,93.305 206.436,92.15C206.436,89.76 204.47,87.794 202.08,87.794C200.925,87.794 199.817,88.253 199,89.07L146.83,141.24C141.597,137.309 135.225,135.182 128.68,135.182C112.101,135.182 98.46,148.824 98.46,165.402C98.46,173.438 101.665,181.151 107.36,186.82ZM113.47,180.71C109.422,176.661 107.145,171.164 107.145,165.438C107.145,153.589 116.896,143.838 128.745,143.838C140.594,143.838 150.345,153.589 150.345,165.438C150.345,171.164 148.068,176.661 144.02,180.71C135.634,189.075 121.856,189.075 113.47,180.71Z" style="fill:white;fill-rule:nonzero;"/>
        </g>
    </g>
</svg>
